<?xml version="1.0" standalone="no"?>
<!DOCTYPE svg PUBLIC "-//W3C//DTD SVG 20010904//EN"
 "http://www.w3.org/TR/2001/REC-SVG-20010904/DTD/svg10.dtd">
<svg version="1.0"
    xmlns="http://www.w3.org/2000/svg" viewBox="0 0 609.000000 637.000000" preserveAspectRatio="xMidYMid meet">

    <g transform="translate(0.000000,637.000000) scale(0.100000,-0.100000)" fill="#000000" stroke="none">
        <path d="M1295 6350 c-585 -63 -1088 -463 -1239 -983 -53 -184 -51 -82 -51
-2187 0 -2153 -4 -1999 62 -2218 51 -171 110 -278 250 -452 65 -81 221 -225
273 -254 158 -86 230 -119 311 -145 197 -64 181 -63 1028 -70 694 -5 775 -8
784 -22 9 -14 13 -14 39 -2 19 10 39 12 56 7 37 -10 64 -10 84 -1 26 11 506
19 513 8 3 -6 18 -6 37 1 22 8 131 9 362 4 407 -9 413 -9 421 -18 4 -4 22 -1
40 7 19 7 35 12 37 10 2 -2 20 -5 41 -7 20 -1 37 -5 37 -8 0 -6 52 -4 140 6
25 2 124 9 220 14 235 13 379 38 490 84 232 98 458 273 597 462 108 147 196
348 239 544 18 81 19 171 19 2045 0 1862 -1 1964 -18 2043 -114 516 -460 899
-960 1063 -237 78 -80 73 -2012 75 -952 1 -1761 -2 -1800 -6z m1793 -690 c1
-102 -1 -210 -5 -240 -7 -49 -11 -55 -34 -58 -22 -3 -27 2 -33 29 -8 43 -8
444 1 453 4 4 21 6 38 4 l30 -3 3 -185z m612 48 c0 -47 -63 -327 -78 -348 -10
-14 -40 -36 -66 -49 -45 -22 -51 -23 -75 -10 -63 35 -18 121 70 134 l45 7 16
91 c8 51 14 94 12 96 -6 7 -143 -31 -152 -42 -5 -7 -12 -39 -15 -72 -5 -52
-11 -64 -41 -92 -41 -38 -100 -53 -123 -30 -12 12 -13 19 -3 36 13 26 67 61
93 61 9 0 17 3 17 8 0 28 23 139 30 146 9 9 224 73 253 75 9 1 17 -5 17 -11z
m-1311 -238 c56 -83 101 -156 101 -163 0 -19 -34 -69 -70 -104 -44 -43 -95
-46 -112 -7 -16 34 3 68 59 109 23 16 42 34 42 38 1 11 -96 152 -115 167 -10
9 -22 3 -54 -31 -22 -23 -40 -44 -40 -47 0 -2 21 -34 46 -70 35 -50 44 -70 37
-82 -6 -8 -15 -15 -22 -15 -12 0 -131 170 -131 188 0 9 148 167 156 167 1 0
48 -68 103 -150z m423 133 c40 -36 9 -123 -44 -123 -38 1 -78 44 -78 84 0 47
84 74 122 39z m-1033 -19 c60 -42 58 -138 -2 -174 -48 -30 -83 -26 -123 14
-28 28 -34 42 -34 76 0 81 93 130 159 84z m2604 -4 c38 -30 52 -80 33 -123
-51 -123 -247 -56 -205 70 21 66 118 96 172 53z m-374 -176 c43 -65 51 -83 51
-122 0 -53 -26 -117 -59 -146 -11 -11 -23 -17 -24 -15 -2 2 -16 21 -31 42 -16
20 -32 37 -35 37 -4 0 -15 -25 -25 -55 -26 -83 -91 -121 -138 -78 -38 34 -9
89 52 99 29 5 41 12 45 28 22 74 99 286 105 286 4 0 30 -34 59 -76z m-2683
-50 c9 -36 1 -58 -28 -72 -51 -24 -98 16 -84 73 12 49 100 48 112 -1z m3519
20 c25 -25 16 -75 -17 -93 -25 -14 -29 -14 -55 5 -15 12 -29 31 -31 43 -8 50
66 82 103 45z m-2896 -31 c58 -72 193 -258 204 -282 9 -19 8 -26 -7 -36 -10
-8 -23 -12 -29 -9 -11 5 -196 240 -230 295 -15 23 -15 27 -1 47 21 30 28 28
63 -15z m2499 -138 c186 -78 148 -346 -51 -363 -34 -3 -66 1 -91 12 l-38 16
-90 -78 c-49 -42 -96 -77 -105 -77 -9 0 -22 9 -29 21 -13 19 -9 25 68 96 46
41 103 89 127 106 l44 32 33 -21 c89 -55 189 9 163 104 -5 19 -18 42 -28 51
-28 26 -95 32 -125 12 -32 -21 -45 -20 -76 4 l-25 19 24 25 c51 54 128 70 199
41z m-2763 -69 c40 -17 55 -42 55 -93 0 -36 6 -44 88 -115 48 -42 111 -102
141 -132 54 -54 54 -56 36 -76 -10 -11 -23 -20 -29 -20 -6 0 -74 57 -150 128
-119 108 -144 127 -175 130 -68 4 -112 84 -80 143 6 12 25 27 42 34 40 18 32
17 72 1z m1731 -66 c105 -59 153 -153 161 -310 4 -69 1 -112 -11 -160 -47
-181 -207 -346 -395 -408 -92 -30 -248 -40 -371 -23 -84 11 -240 51 -240 61 0
3 47 20 104 39 l102 33 92 -12 c178 -25 317 3 427 86 119 88 175 199 183 356
6 128 -15 193 -112 341 -24 36 -6 36 60 -3z m-261 -7 c104 -36 192 -125 202
-204 3 -21 2 -39 -2 -39 -5 0 -31 22 -60 49 -75 71 -144 103 -232 109 -163 11
-293 -68 -364 -221 l-28 -62 -1 66 c-1 222 255 382 485 302z m-1887 -69 c27
-18 30 -69 5 -96 -51 -57 -140 25 -92 85 23 30 54 34 87 11z m3622 -4 c11 -11
20 -31 20 -45 0 -31 -33 -65 -62 -65 -28 0 -68 38 -68 65 0 29 36 65 65 65 14
0 34 -9 45 -20z m-2478 -62 c-48 -84 -64 -156 -60 -261 4 -117 33 -182 119
-272 l62 -64 -26 -10 c-86 -33 -126 -22 -196 54 -94 102 -134 265 -96 392 19
63 88 143 159 184 28 16 55 29 59 29 5 0 -5 -24 -21 -52z m208 32 c0 -5 -4
-10 -10 -10 -5 0 -9 -3 -8 -7 1 -5 -4 -44 -10 -88 -22 -141 16 -285 99 -379
32 -37 32 -39 14 -52 -10 -8 -29 -14 -41 -14 -30 0 -100 78 -132 148 -24 51
-27 68 -27 172 0 90 4 121 16 140 9 14 16 28 15 31 -1 3 6 13 14 22 8 9 21 23
28 32 14 17 42 20 42 5z m524 -109 c55 -27 109 -94 127 -158 39 -140 -79 -283
-233 -283 -69 0 -111 16 -162 60 -111 98 -108 261 5 352 77 62 173 72 263 29z
m640 -53 c63 -108 52 -272 -28 -433 -25 -49 -66 -114 -92 -144 l-48 -53 -23
52 -23 53 34 51 c92 139 116 221 116 393 0 115 1 123 20 123 12 0 28 -15 44
-42z m-2892 -144 c-20 -243 174 -626 546 -1074 221 -266 399 -423 726 -638
342 -226 466 -328 582 -481 73 -97 159 -263 195 -375 13 -42 27 -76 30 -76 11
0 19 100 20 240 0 74 5 158 10 185 5 28 10 58 10 68 0 9 4 17 9 17 5 0 6 7 3
17 -4 11 -3 14 5 9 7 -4 12 -2 12 3 0 6 4 11 9 11 19 0 31 -66 31 -164 0 -155
12 -386 20 -386 4 0 22 42 40 93 77 217 193 397 343 531 102 91 143 121 402
295 277 185 359 248 506 388 273 263 536 614 685 918 77 158 105 257 106 382
1 51 5 90 9 87 19 -11 82 -132 106 -203 21 -61 27 -95 27 -171 0 -172 -69
-320 -280 -603 -132 -177 -271 -339 -490 -572 -258 -275 -354 -349 -647 -496
-225 -113 -261 -135 -353 -221 -98 -92 -179 -199 -229 -301 -64 -134 -86 -232
-94 -417 -8 -165 -15 -193 -65 -239 -14 -13 -47 -29 -74 -36 -91 -24 -179 10
-222 87 -22 38 -25 60 -31 203 -4 88 -11 171 -14 185 -53 202 -131 339 -270
476 -107 105 -197 165 -408 268 -189 93 -302 170 -439 297 -181 166 -489 515
-680 769 -158 211 -244 370 -269 498 -15 81 -7 210 20 286 20 57 99 196 112
196 3 0 4 -25 1 -56z m603 -7 c21 -21 35 -47 39 -74 7 -37 18 -51 102 -123 52
-44 94 -84 94 -88 0 -4 -9 -18 -19 -31 l-19 -25 -48 41 c-27 22 -58 51 -69 63
-11 12 -32 31 -47 42 -25 17 -30 18 -57 3 -65 -33 -143 -2 -169 67 -19 48 -9
83 33 125 28 28 40 33 80 33 40 0 52 -5 80 -33z m3234 8 c60 -51 62 -139 4
-185 -80 -63 -193 -6 -193 98 0 38 5 49 36 78 46 44 106 47 153 9z m-2635
-163 c12 -79 74 -182 161 -269 70 -69 99 -89 186 -132 124 -60 230 -88 385
-103 195 -18 414 21 512 92 41 29 45 37 57 113 4 24 14 43 30 53 23 15 27 15
49 1 30 -20 36 -52 21 -110 -44 -172 -247 -268 -566 -268 -252 0 -471 57 -629
164 -121 83 -215 201 -250 315 -26 85 -26 130 2 159 29 31 34 29 42 -15z
m1926 -49 c0 -41 -27 -139 -55 -200 -62 -137 -206 -296 -364 -401 -99 -67
-121 -72 -199 -49 l-42 13 109 72 c173 114 309 248 389 384 31 54 80 181 98
255 6 24 64 -44 64 -74z m452 -9 c12 -25 10 -29 -36 -70 -26 -24 -53 -44 -60
-44 -7 0 -19 12 -27 26 -13 26 -12 28 36 70 28 24 56 44 63 44 7 0 18 -12 24
-26z m-333 -215 c-11 -7 -10 -9 4 -9 40 0 0 -141 -69 -245 -81 -121 -289 -310
-388 -353 l-29 -13 7 38 c3 21 6 50 6 64 0 21 15 38 78 84 140 106 259 240
322 365 27 54 59 92 73 83 5 -3 3 -9 -4 -14z m-3409 -256 c121 -222 378 -557
735 -960 94 -105 159 -183 163 -194 19 -50 -402 248 -675 478 -136 114 -276
261 -322 337 -65 109 -85 178 -85 301 -1 114 11 170 57 260 l19 39 33 -92 c18
-51 52 -127 75 -169z m1213 237 c7 0 26 -24 44 -53 137 -226 353 -366 668
-433 40 -9 40 -10 49 -67 4 -32 6 -60 4 -63 -7 -6 -220 40 -274 59 -55 20
-152 70 -222 114 -73 46 -220 193 -256 257 -39 66 -60 160 -43 186 6 11 13 16
15 10 2 -5 9 -10 15 -10z m3563 -105 c22 -64 27 -99 27 -175 1 -223 -107 -383
-438 -651 -169 -137 -347 -271 -460 -345 -135 -89 -165 -105 -165 -90 0 13 34
53 230 272 383 426 649 806 720 1029 13 39 25 74 28 79 7 13 29 -30 58 -119z
m-4017 -1 c27 -35 26 -59 -4 -89 -30 -30 -54 -31 -89 -4 -31 24 -35 72 -9 101
25 28 77 24 102 -8z m3174 9 c42 -48 7 -123 -57 -123 -23 0 -66 48 -66 75 0
55 86 89 123 48z m-477 -281 c-16 -134 -227 -351 -480 -495 -109 -62 -219
-107 -262 -107 -37 0 -124 21 -124 30 0 3 75 43 167 89 172 88 307 170 403
248 75 61 260 242 260 254 0 6 5 7 10 4 6 -3 10 1 10 10 0 9 5 13 10 10 6 -4
9 -23 6 -43z m-2266 -23 c0 -5 5 -7 11 -4 6 4 43 -24 82 -62 80 -77 144 -125
230 -173 31 -17 57 -35 57 -38 0 -11 -86 -62 -104 -62 -22 0 -89 50 -161 120
-73 72 -79 78 -104 126 -16 29 -18 40 -8 46 8 5 7 8 -5 8 -12 0 -18 8 -18 25
0 14 5 25 10 25 6 0 10 -5 10 -11z m1412 -124 c2 -15 -119 -62 -204 -81 -40
-8 -123 -18 -185 -21 -126 -7 -121 -10 -137 80 l-7 37 53 0 c95 0 262 20 328
39 l65 18 43 -31 c23 -17 43 -35 44 -41z m224 -93 c-9 -27 -32 -64 -51 -82
-30 -29 -40 -33 -82 -32 -51 2 -157 21 -151 28 2 2 52 28 110 58 59 30 124 66
145 80 46 32 53 20 29 -52z m608 -113 c-3 -5 -10 -6 -16 -3 -6 4 -5 -3 2 -16
7 -12 8 -25 4 -29 -5 -3 -18 -23 -28 -44 -26 -50 -154 -172 -249 -235 -151
-103 -379 -202 -463 -202 -17 0 -55 7 -84 16 -65 19 -78 10 162 113 257 111
375 181 540 324 43 37 83 65 88 62 5 -3 11 4 15 14 4 12 12 18 20 14 8 -3 12
-9 9 -14z m-3539 -65 c112 -107 345 -301 510 -425 180 -136 395 -289 406 -289
4 0 -1 -25 -12 -57 -10 -31 -19 -69 -19 -85 0 -15 -3 -28 -6 -28 -23 0 -431
241 -634 375 -236 156 -340 306 -340 490 0 41 8 95 14 95 0 0 37 -34 81 -76z
m4918 -15 c3 -160 -74 -297 -235 -419 -183 -138 -713 -450 -738 -435 -6 4 -10
15 -10 27 0 11 -7 45 -16 75 -13 46 -14 57 -3 64 25 15 199 142 383 279 250
187 459 356 536 434 36 36 69 61 73 57 5 -5 9 -42 10 -82z m-3046 60 c42 -12
97 -24 122 -28 42 -6 44 -8 25 -19 -12 -6 -60 -23 -108 -36 l-86 -25 -70 25
c-39 15 -70 30 -70 34 0 8 90 70 102 70 4 0 42 -9 85 -21z m-520 -31 c18 -7
35 -19 38 -28 3 -8 13 -20 24 -25 11 -6 58 -36 105 -68 47 -32 107 -67 134
-78 55 -24 182 -55 265 -65 68 -8 70 -19 7 -52 -117 -61 -357 16 -505 161 -27
28 -49 54 -47 58 1 5 -3 9 -9 9 -5 0 -7 5 -4 10 3 6 -1 10 -11 10 -12 0 -15 7
-12 29 2 17 2 28 -1 27 -3 -2 -12 2 -19 10 -16 17 -8 18 35 2z m1210 -20 c32
-12 62 -25 67 -29 12 -10 -57 -43 -134 -63 -77 -21 -373 -33 -435 -18 l-40 9
29 12 c17 7 58 32 92 56 l62 44 128 4 c71 1 139 4 151 5 11 1 47 -8 80 -20z
m83 -254 c22 -15 37 -31 33 -36 -9 -16 -121 -63 -183 -79 -67 -17 -435 -20
-463 -4 -15 9 -9 17 44 57 l60 47 67 -6 c77 -6 260 11 323 31 63 20 75 19 119
-10z m-2644 -235 c18 -30 745 -479 857 -530 19 -8 27 -24 37 -67 6 -32 21 -77
31 -101 10 -24 19 -45 19 -47 0 -19 -208 21 -378 72 -366 111 -549 282 -592
551 -15 93 0 164 26 122z m4851 -88 c-6 -106 -39 -198 -103 -288 -98 -138
-280 -240 -570 -319 -106 -28 -291 -63 -299 -56 -2 2 2 17 10 32 8 15 22 58
31 96 9 38 22 74 28 81 6 6 79 50 161 98 275 159 439 259 585 356 80 53 149
94 154 91 5 -2 6 -44 3 -91z m-2228 22 l46 -27 -60 -18 c-100 -31 -191 -41
-324 -34 -70 3 -134 6 -143 7 -10 0 -20 4 -23 9 -3 5 -13 6 -22 3 -11 -4 -14
-3 -9 5 4 7 1 12 -8 12 -20 0 -29 17 -21 38 5 14 7 14 15 2 6 -8 10 -10 10 -5
0 6 62 11 163 12 89 1 182 6 207 11 80 17 120 14 169 -15z m-579 -7 c0 -3 -4
-8 -10 -11 -5 -3 -10 -1 -10 4 0 6 5 11 10 11 6 0 10 -2 10 -4z m-584 -307
c71 -13 180 -62 261 -117 94 -64 220 -208 200 -228 -3 -4 -26 -1 -51 5 -63 16
-190 14 -304 -5 -114 -19 -212 -14 -276 15 -102 45 -187 164 -190 265 l-1 51
80 11 c107 15 209 16 281 3z m2173 -4 c51 -7 95 -16 98 -19 9 -9 -17 -107 -42
-161 -14 -29 -44 -70 -67 -90 -86 -79 -190 -99 -360 -71 -114 19 -250 21 -314
5 -25 -6 -47 -9 -50 -6 -21 20 112 173 206 237 163 111 306 139 529 105z
m-2874 -469 c88 -19 194 -40 235 -46 65 -11 80 -17 112 -48 20 -20 34 -40 32
-44 -3 -5 0 -8 6 -8 7 0 10 -7 6 -15 -3 -9 1 -15 11 -15 13 0 13 -3 3 -15 -11
-13 -10 -15 6 -10 10 3 0 -4 -24 -15 -159 -77 -429 -89 -570 -25 -73 33 -156
115 -192 189 -28 57 -53 153 -44 167 2 3 61 -13 131 -37 70 -24 200 -59 288
-78z m3725 111 c0 -32 -28 -133 -46 -169 -67 -132 -186 -205 -359 -223 -133
-13 -421 38 -408 73 5 11 2 14 -10 9 -20 -8 -21 0 -4 36 6 15 22 30 35 33 12
4 22 12 22 18 0 30 52 57 138 72 219 38 370 74 497 118 90 31 135 42 135 33z
m-2737 -286 c141 -49 230 -143 266 -284 44 -166 101 -244 221 -301 60 -29 73
-31 176 -31 107 0 112 1 186 38 119 58 160 116 204 281 30 112 74 179 152 234
91 64 166 85 300 85 62 0 115 -2 118 -6 3 -3 8 -47 11 -99 11 -203 -64 -377
-268 -623 -197 -236 -397 -400 -556 -456 -83 -30 -217 -29 -298 1 -110 41
-249 142 -395 289 -281 282 -413 508 -426 734 -7 125 1 150 52 159 63 11 196
0 257 -21z m-455 -738 c13 -8 30 -31 39 -51 21 -50 11 -100 -27 -134 -56 -51
-111 -49 -167 7 -28 28 -33 40 -33 78 0 99 103 153 188 100z m2369 1 c59 -38
68 -132 17 -185 -74 -77 -204 -22 -204 86 0 96 106 152 187 99z"/>
        <path d="M3951 5327 c-19 -49 -12 -84 26 -136 2 -3 10 4 18 15 23 30 19 89 -9
121 l-24 28 -11 -28z"/>
        <path d="M1940 3774 c0 -8 5 -12 10 -9 6 4 8 11 5 16 -9 14 -15 11 -15 -7z"/>
        <path d="M2905 1146 c-78 -16 -138 -42 -133 -58 3 -7 36 -24 74 -37 100 -36
267 -36 373 0 41 13 76 30 78 36 11 31 -145 73 -262 72 -38 -1 -97 -7 -130
-13z"/>
    </g>
</svg>
